<?xml version="1.0" encoding="UTF-8" standalone="no"?>
<svg
   id="Layer_1"
   data-name="Layer 1"
   viewBox="0 0 900 900"
   version="1.1"
   sodipodi:docname="ubucon logo-05.svg"
   inkscape:version="1.3.2 (091e20e, 2023-11-25, custom)"
   xmlns:inkscape="http://www.inkscape.org/namespaces/inkscape"
   xmlns:sodipodi="http://sodipodi.sourceforge.net/DTD/sodipodi-0.dtd"
   xmlns="http://www.w3.org/2000/svg"
   xmlns:svg="http://www.w3.org/2000/svg">
  <sodipodi:namedview
     id="namedview134"
     pagecolor="#ffffff"
     bordercolor="#000000"
     borderopacity="0.25"
     inkscape:showpageshadow="2"
     inkscape:pageopacity="0.0"
     inkscape:pagecheckerboard="0"
     inkscape:deskcolor="#d1d1d1"
     inkscape:zoom="1.1966667"
     inkscape:cx="450"
     inkscape:cy="482.59053"
     inkscape:window-width="2880"
     inkscape:window-height="1514"
     inkscape:window-x="3373"
     inkscape:window-y="-11"
     inkscape:window-maximized="1"
     inkscape:current-layer="Layer_1" />
  <defs
     id="defs2">
    <style
       id="style1">
      .cls-1, .cls-2 {
        fill: #e95420;
      }

      .cls-3, .cls-4 {
        fill: #fff;
      }

      .cls-5 {
        mask: url(#mask);
      }

      .cls-4 {
        fill-rule: evenodd;
      }

      .cls-6, .cls-7, .cls-8, .cls-9, .cls-10 {
        fill: none;
      }

      .cls-7 {
        stroke-width: .42px;
      }

      .cls-7, .cls-8, .cls-9 {
        stroke: #e95420;
      }

      .cls-11 {
        fill: #ccac5b;
      }

      .cls-12 {
        clip-path: url(#clippath-1);
      }

      .cls-2 {
        stroke-width: .41px;
      }

      .cls-2, .cls-10 {
        stroke: #fff;
      }

      .cls-8 {
        stroke-linejoin: round;
        stroke-width: 16.99px;
      }

      .cls-9 {
        stroke-width: 2.52px;
      }

      .cls-9, .cls-10 {
        stroke-linecap: round;
      }

      .cls-10 {
        stroke-width: .89px;
      }

      .cls-13 {
        clip-path: url(#clippath);
      }
    </style>
    <clipPath
       id="clippath">
      <path
         class="cls-6"
         d="M467.6,660.16c12.56-57.73,63.95-100.97,125.45-100.97,20.32,0,39.52,4.73,56.6,13.13,31.84-39.88,50.88-90.42,50.88-145.42,0-50.32-15.93-96.92-43.03-135.03-12.59,4.12-26.03,6.36-40,6.36-62.34,0-114.29-44.43-125.94-103.35-7.99-.83-16.09-1.26-24.3-1.26-90.44,0-168.86,51.47-207.57,126.72,21.3,22.92,34.33,53.63,34.33,87.38,0,39.62-17.95,75.05-46.16,98.6,32.49,89.73,118.45,153.85,219.39,153.85.11,0,.23,0,.34,0Z"
         id="path1" />
    </clipPath>
    <clipPath
       id="clippath-1">
      <rect
         class="cls-6"
         x="385.88"
         y="487.01"
         width="358.01"
         height="132.78"
         id="rect1" />
    </clipPath>
    <mask
       id="mask"
       x="513.62"
       y="318.93"
       width="104"
       height="139.16"
       maskUnits="userSpaceOnUse">
      <g
         id="mask0_3_1910"
         data-name="mask0 3 1910">
        <path
           class="cls-11"
           d="M563.62,318.93s34.05,79.84,34.05,138.25l-66.39.42c0-61.77,32.34-138.67,32.34-138.67Z"
           id="path2" />
      </g>
    </mask>
  </defs>
  <g
     id="g135"
     inkscape:export-filename="g135.svg"
     inkscape:export-xdpi="96"
     inkscape:export-ydpi="96"
     transform="matrix(1.1654687,0,0,1.1654687,-61.60653,-49.636446)">
    <path
       class="cls-1"
       d="m 467.6,660.16 c 12.56,-57.73 63.95,-100.97 125.45,-100.97 20.32,0 39.52,4.73 56.6,13.13 31.84,-39.88 50.88,-90.42 50.88,-145.42 0,-50.32 -15.93,-96.92 -43.03,-135.03 -12.59,4.12 -26.03,6.36 -40,6.36 -62.34,0 -114.29,-44.43 -125.94,-103.35 -7.99,-0.83 -16.09,-1.26 -24.3,-1.26 -90.44,0 -168.86,51.47 -207.57,126.72 21.3,22.92 34.33,53.63 34.33,87.38 0,39.62 -17.95,75.05 -46.16,98.6 32.49,89.73 118.45,153.85 219.39,153.85 0.11,0 0.23,0 0.34,0 z"
       id="path3"
       style="display:inline" />
    <g
       id="g6"
       style="display:inline">
      <circle
         class="cls-1"
         cx="165.63"
         cy="407.72"
         r="108.48"
         id="circle3" />
      <circle
         class="cls-1"
         cx="617.5"
         cy="169.82001"
         r="108.48"
         id="circle4" />
      <path
         class="cls-1"
         d="M 410.33,686.96 C 332.2,670.23 266.85,620.28 230.15,549.54 c -28.94,13.16 -61.44,17.19 -92.75,11.42 44.42,109.11 138.67,188.36 254.29,213.15 25.37,5.44 51.27,8.1 77.06,7.93 -19.93,-26.2 -31.01,-57.79 -31.76,-90.71 -8.93,-1 -17.85,-2.45 -26.61,-4.32 l -0.04,-0.04 z"
         id="path4" />
      <circle
         class="cls-1"
         cx="593.04999"
         cy="687.58002"
         r="108.48"
         id="circle5" />
      <path
         class="cls-1"
         d="m 744,647.72 c 33.75,-42.51 57.5,-92.79 68.96,-146.26 19.97,-93.16 1.33,-190.94 -51.15,-270.23 -12.5,29.44 -33.71,54.35 -61.03,71.45 29.27,55.18 38.2,118.86 25.08,180.14 -6.44,29.98 -17.77,58.25 -33.75,84.07 25.53,20.92 43.55,49.11 51.94,80.83 h -0.04 z"
         id="path5" />
      <path
         class="cls-1"
         d="m 157.24,252.15 c 2.74,-0.17 5.52,-0.21 8.26,-0.21 10.96,0 21.92,1.16 32.76,3.49 17.69,3.78 34.33,10.5 49.53,19.93 48.87,-70.25 127.66,-112.43 213.06,-113.96 0.46,-8.18 1.54,-16.4 3.28,-24.41 4.98,-23.25 15.15,-44.96 29.64,-63.56 C 357.35,62.64 224.74,133.05 157.23,252.16 Z"
         id="path6" />
    </g>
    <g
       class="cls-13"
       clip-path="url(#clippath)"
       id="g134"
       style="display:inline">
      <g
         id="g133">
        <g
           id="g12">
          <path
             class="cls-1"
             d="m 377.54,234.36 -62.92,89.2 -59.58,48.29 -21.66,40.91 -30.57,43.18 -24.05,3.98 -33.26,67.38 H 637.84 L 522.33,379.01 472.5,348.9 448.72,304.13 377.52,234.36 Z"
             id="path7" />
          <path
             class="cls-3"
             d="m 441.15,315.27 -57.31,-52.04 19.1,77.38 18.44,35.22 14.6,73.09 26.94,70.08 h 131.31 l -77.34,-136.47 -57.31,-28.07 -18.44,-39.2 z"
             id="path8" />
          <path
             class="cls-3"
             d="m 371.95,255.95 -48.56,67.61 -56.06,49.88 -57.01,86.47 -25.65,8.41 -31.53,56.02 100.46,2.95 h 226.91 l -71.39,-148.28 -20.56,-30.11 -9.81,-44.77 -6.78,-48.18 z"
             id="path9" />
          <path
             class="cls-1"
             d="m 371.95,318.11 -48.56,52.15 -56.06,38.48 -57.01,66.7 -25.65,6.49 -32.31,47.49 101.23,-2 384.02,2.86 -228.51,-117.24 -7.77,-39.59 -22.6,-18.17 -6.78,-37.16 z"
             id="path10" />
          <path
             class="cls-1"
             d="m 437.94,324.13 -39.68,-32.61 2.14,24.89 7.08,28.18 37.4,-6.7 -6.95,-13.75 z"
             id="path11" />
          <path
             class="cls-1"
             d="M 559.84,489.18 495.45,402 l -56.17,-33.14 35.28,139.45 97.25,-5.35 z"
             id="path12" />
        </g>
        <path
           class="cls-3"
           d="m 296.04,477.21 6.17,-2.68 V 483 c 0,0.26 -0.21,0.46 -0.46,0.46 -1.3,0 -2.57,0.41 -3.63,1.18 l -0.92,0.67 c -0.48,0.35 -1.15,0 -1.15,-0.59 v -7.51 z"
           id="path13" />
        <path
           class="cls-3"
           d="m 231.85,497.77 6.17,-2.68 v 8.47 c 0,0.26 -0.21,0.46 -0.46,0.46 -1.3,0 -2.57,0.41 -3.63,1.18 l -0.92,0.67 c -0.48,0.35 -1.16,0 -1.16,-0.59 z"
           id="path14" />
        <path
           class="cls-3"
           d="m 252.84,490.62 6.17,-2.68 v 8.47 c 0,0.26 -0.21,0.46 -0.46,0.46 -1.3,0 -2.57,0.41 -3.63,1.18 l -0.92,0.67 c -0.48,0.35 -1.16,0 -1.16,-0.59 z"
           id="path15" />
        <path
           class="cls-3"
           d="m 276.29,482.58 6.17,-2.68 v 8.47 c 0,0.26 -0.21,0.46 -0.46,0.46 -1.3,0 -2.57,0.41 -3.63,1.18 l -0.92,0.67 c -0.48,0.35 -1.16,0 -1.16,-0.59 z"
           id="path16" />
        <path
           class="cls-3"
           d="m 219.09,578.15 5.57,-3.7 v 12.01 c 0,0.18 -0.14,0.32 -0.32,0.32 -1.21,0 -2.37,0.51 -3.19,1.42 l -1.05,1.16 c -0.36,0.4 -1.02,0.14 -1.02,-0.39 v -10.81 z"
           id="path17" />
        <path
           class="cls-3"
           d="m 239.16,570.75 5.57,-3.7 v 12.01 c 0,0.18 -0.14,0.32 -0.32,0.32 -1.21,0 -2.37,0.51 -3.19,1.42 l -1.05,1.16 c -0.36,0.4 -1.02,0.14 -1.02,-0.39 v -10.81 z"
           id="path18" />
        <path
           class="cls-3"
           d="m 261.46,560.88 5.57,-3.7 v 12.01 c 0,0.18 -0.14,0.32 -0.32,0.32 -1.21,0 -2.37,0.51 -3.19,1.42 l -1.05,1.16 c -0.36,0.4 -1.02,0.14 -1.02,-0.39 v -10.81 z"
           id="path19" />
        <path
           class="cls-3"
           d="m 280.41,551.01 5.57,-3.7 v 12.01 c 0,0.18 -0.14,0.32 -0.32,0.32 -1.21,0 -2.37,0.51 -3.19,1.42 l -1.05,1.16 c -0.36,0.4 -1.02,0.14 -1.02,-0.39 v -10.81 z"
           id="path20" />
        <path
           class="cls-3"
           d="m 301.6,539.91 5.57,-3.7 v 12.01 c 0,0.18 -0.14,0.32 -0.32,0.32 -1.21,0 -2.37,0.51 -3.19,1.42 l -1.05,1.16 c -0.36,0.4 -1.02,0.14 -1.02,-0.39 v -10.81 z"
           id="path21" />
        <g
           id="g132">
          <g
             class="cls-12"
             clip-path="url(#clippath-1)"
             id="g22">
            <path
               class="cls-3"
               d="m 743.9,620.22 c 0,-35.33 -18.86,-69.21 -52.43,-94.19 -33.57,-24.98 -79.1,-39.01 -126.58,-39.01 -47.48,0 -93.01,14.03 -126.58,39.01 -33.57,24.98 -52.43,58.86 -52.43,94.19 h 358.01 z"
               id="path22" />
          </g>
          <path
             class="cls-2"
             d="m 531.48,489.45 v -31.63 l 29.84,2.09 v 31.93 z"
             id="path23" />
          <path
             class="cls-3"
             d="m 531.27,457.6 30.26,0.72 v 12.3 l -1.1,-0.91 c -0.87,-0.72 -2.07,-0.86 -3.08,-0.36 -1.03,0.51 -2.27,0.35 -3.14,-0.41 l -0.76,-0.67 c -0.7,-0.62 -1.71,-0.74 -2.55,-0.32 l -0.09,0.05 c -0.65,0.33 -1.43,0.3 -2.05,-0.08 -0.67,-0.41 -1.52,-0.41 -2.19,0 l -0.09,0.06 c -0.58,0.35 -1.28,0.43 -1.92,0.21 l -1.13,-0.38 c -1.06,-0.36 -2.22,-0.34 -3.27,0.06 l -0.1,0.04 c -1.06,0.4 -2.23,0.44 -3.32,0.11 l -0.35,-0.1 c -1.41,-0.43 -2.92,-0.34 -4.27,0.24 l -0.85,0.37 -2.1,-0.86 2.1,-10.08 z"
             id="path24" />
          <path
             class="cls-2"
             d="m 597.46,489.44 v -31.63 l -35.73,2.09 v 31.93 z"
             id="path25" />
          <path
             class="cls-1"
             d="m 563.62,318.93 c 0,0 34.05,79.84 34.05,138.25 l -66.39,0.42 c 0,-61.77 32.34,-138.67 32.34,-138.67 z"
             id="path26" />
          <path
             class="cls-4"
             d="m 573.29,331.46 c 0,-10.62 -9.48,-25.14 -9.48,-25.14 0,0 -9.01,13.98 -9.01,25.21 h 1.68 c 0,-9.74 7.37,-21.85 7.37,-21.85 0,0 7.76,12.58 7.76,21.78 z"
             id="path27" />
          <g
             class="cls-5"
             mask="url(#mask)"
             id="g38">
            <g
               id="g37">
              <path
                 class="cls-4"
                 d="m 616.78,458.09 c -11.1,-3.05 -30.06,-5.06 -51.58,-5.06 -21.52,0 -40.48,2.01 -51.58,5.06 2.32,-5.46 24.53,-9.73 51.58,-9.73 27.05,0 49.26,4.28 51.58,9.73 z"
                 id="path28" />
              <path
                 class="cls-4"
                 d="m 616.78,450.03 c -11.1,-4.48 -30.06,-7.43 -51.58,-7.43 -21.52,0 -40.48,2.95 -51.58,7.43 2.32,-8.01 24.53,-14.29 51.58,-14.29 27.05,0 49.26,6.28 51.58,14.29 z"
                 id="path29" />
              <path
                 class="cls-4"
                 d="m 616.78,436.59 c -11.1,-4.48 -30.06,-7.43 -51.58,-7.43 -21.52,0 -40.48,2.95 -51.58,7.43 2.32,-8.01 24.53,-14.29 51.58,-14.29 27.05,0 49.26,6.28 51.58,14.29 z"
                 id="path30" />
              <path
                 class="cls-4"
                 d="m 616.78,423.14 c -11.1,-4.74 -30.06,-7.87 -51.58,-7.87 -21.52,0 -40.48,3.12 -51.58,7.87 2.32,-8.48 24.53,-15.13 51.58,-15.13 27.05,0 49.26,6.65 51.58,15.13 z"
                 id="path31" />
              <path
                 class="cls-4"
                 d="m 616.78,409.69 c -11.1,-4.48 -30.06,-7.43 -51.58,-7.43 -21.52,0 -40.48,2.95 -51.58,7.43 2.32,-8.01 24.53,-14.29 51.58,-14.29 27.05,0 49.26,6.28 51.58,14.29 z"
                 id="path32" />
              <path
                 class="cls-4"
                 d="m 616.78,396.25 c -11.1,-4.48 -30.06,-7.43 -51.58,-7.43 -21.52,0 -40.48,2.95 -51.58,7.43 2.32,-8.01 24.53,-14.29 51.58,-14.29 27.05,0 49.26,6.28 51.58,14.29 z"
                 id="path33" />
              <path
                 class="cls-4"
                 d="m 616.78,382.8 c -11.1,-4.48 -30.06,-7.43 -51.58,-7.43 -21.52,0 -40.48,2.95 -51.58,7.43 2.32,-8.01 24.53,-14.29 51.58,-14.29 27.05,0 49.26,6.28 51.58,14.29 z"
                 id="path34" />
              <path
                 class="cls-4"
                 d="m 617.62,369.35 c -11.1,-3.95 -30.06,-6.55 -51.58,-6.55 -21.52,0 -40.48,2.6 -51.58,6.55 2.32,-7.07 24.53,-12.61 51.58,-12.61 27.05,0 49.26,5.54 51.58,12.61 z"
                 id="path35" />
              <path
                 class="cls-4"
                 d="m 616.78,358.08 c -11.1,-3.84 -30.06,-6.37 -51.58,-6.37 -21.52,0 -40.48,2.53 -51.58,6.37 2.32,-6.87 24.53,-12.26 51.58,-12.26 27.05,0 49.26,5.39 51.58,12.26 z"
                 id="path36" />
              <path
                 class="cls-4"
                 d="m 616.78,345.47 c -11.1,-3.05 -30.06,-5.06 -51.58,-5.06 -21.52,0 -40.48,2.01 -51.58,5.06 2.32,-5.46 24.53,-9.73 51.58,-9.73 27.05,0 49.26,4.28 51.58,9.73 z"
                 id="path37" />
            </g>
          </g>
          <path
             class="cls-1"
             d="m 581.28,413.04 c 0.01,0.7 -0.54,1.27 -1.24,1.28 -0.7,0.01 -1.27,-0.54 -1.28,-1.24 z M 568.63,335.4 c 9.34,34.15 12.31,55.65 12.65,77.63 l -2.52,0.04 c -0.34,-21.72 -3.26,-43.01 -12.56,-77 z"
             id="path38" />
          <path
             class="cls-1"
             d="m 534.63,442.6 1.68,10.3 19.61,0.5 2.24,-11.53 -12.33,-17.04 -11.21,17.78 z"
             id="path39" />
          <path
             class="cls-9"
             d="m 561.53,338.26 c -11.5,34.07 -15.13,55.47 -15.55,77.32"
             id="path40" />
          <path
             class="cls-1"
             d="m 570.77,441.21 2.1,10.93 h 16.39 l 1.26,-11.77 -9.24,-15.55 -10.5,16.39 z"
             id="path41" />
          <path
             class="cls-3"
             d="m 573.29,330.7 0.84,7.98 c -1.93,-0.83 -4.04,-1.12 -6.12,-0.85 l -0.89,0.12 c -1.21,0.16 -2.43,0.17 -3.63,0.03 l -0.66,-0.08 c -2.8,-0.32 -5.63,-0.06 -8.33,0.77 l -1.38,0.42 1.68,-8.4 c 3.51,-0.28 18.49,0 18.49,0 z"
             id="path42" />
          <path
             class="cls-1"
             d="m 555.23,326.24 18.07,-0.59 v 5.86 l -18.49,0.02 c 0,-2.88 0.42,-5.29 0.42,-5.29 z"
             id="path43" />
          <path
             class="cls-7"
             d="M 173.48,512.22 C 399.82,449.61 509.51,397.92 559.42,333.21"
             id="path44" />
          <path
             class="cls-3"
             d="m 367.33,450.87 5.8,-2.52 v 7.97 c 0,0.24 -0.2,0.44 -0.44,0.44 -1.23,0 -2.42,0.39 -3.41,1.11 l -0.87,0.63 c -0.45,0.33 -1.09,0 -1.09,-0.55 v -7.06 z"
             id="path45" />
          <path
             class="cls-3"
             d="m 413.76,430.7 5.8,-2.52 v 7.97 c 0,0.24 -0.2,0.44 -0.44,0.44 -1.23,0 -2.42,0.39 -3.41,1.11 l -0.87,0.63 c -0.45,0.33 -1.09,0 -1.09,-0.55 v -7.06 z"
             id="path46" />
          <path
             class="cls-3"
             d="m 461.34,408.85 5.8,-2.52 v 7.97 c 0,0.24 -0.2,0.44 -0.44,0.44 -1.23,0 -2.42,0.39 -3.41,1.11 l -0.87,0.63 c -0.45,0.33 -1.09,0 -1.09,-0.55 v -7.06 z"
             id="path47" />
          <path
             class="cls-3"
             d="m 511.26,377.76 5.8,-2.52 v 7.97 c 0,0.24 -0.2,0.44 -0.44,0.44 -1.23,0 -2.42,0.39 -3.41,1.11 l -0.87,0.63 c -0.45,0.33 -1.09,0 -1.09,-0.55 v -7.06 z"
             id="path48" />
          <path
             class="cls-3"
             d="m 378.93,445.83 5.8,-2.52 v 7.97 c 0,0.24 -0.2,0.44 -0.44,0.44 -1.23,0 -2.42,0.39 -3.41,1.11 l -0.87,0.63 c -0.45,0.33 -1.09,0 -1.09,-0.55 v -7.06 z"
             id="path49" />
          <path
             class="cls-3"
             d="m 425.36,425.66 5.8,-2.52 v 7.97 c 0,0.24 -0.2,0.44 -0.44,0.44 -1.23,0 -2.42,0.39 -3.41,1.11 l -0.87,0.63 c -0.45,0.33 -1.09,0 -1.09,-0.55 v -7.06 z"
             id="path50" />
          <path
             class="cls-3"
             d="m 313.93,470.2 5.8,-2.52 v 7.97 c 0,0.24 -0.2,0.44 -0.44,0.44 -1.23,0 -2.42,0.39 -3.41,1.11 l -0.87,0.63 c -0.45,0.33 -1.09,0 -1.09,-0.55 v -7.06 z"
             id="path51" />
          <path
             class="cls-3"
             d="m 475.27,401.29 5.8,-2.52 v 7.97 c 0,0.24 -0.2,0.44 -0.44,0.44 -1.23,0 -2.42,0.39 -3.41,1.11 l -0.87,0.63 c -0.45,0.33 -1.09,0 -1.09,-0.55 v -7.06 z"
             id="path52" />
          <path
             class="cls-3"
             d="m 524.02,366.83 5.8,-2.52 v 7.97 c 0,0.24 -0.2,0.44 -0.44,0.44 -1.23,0 -2.42,0.39 -3.41,1.11 l -0.87,0.63 c -0.45,0.33 -1.09,0 -1.09,-0.55 v -7.06 z"
             id="path53" />
          <path
             class="cls-3"
             d="m 390.54,441.63 5.8,-2.52 v 7.97 c 0,0.24 -0.2,0.44 -0.44,0.44 -1.23,0 -2.42,0.39 -3.41,1.11 l -0.87,0.63 c -0.45,0.33 -1.09,0 -1.09,-0.55 v -7.06 z"
             id="path54" />
          <path
             class="cls-3"
             d="m 436.97,421.46 5.8,-2.52 v 7.97 c 0,0.24 -0.2,0.44 -0.44,0.44 -1.23,0 -2.42,0.39 -3.41,1.11 l -0.87,0.63 c -0.45,0.33 -1.09,0 -1.09,-0.55 v -7.06 z"
             id="path55" />
          <path
             class="cls-3"
             d="m 329.02,464.32 5.8,-2.52 v 7.97 c 0,0.24 -0.2,0.44 -0.44,0.44 -1.23,0 -2.42,0.39 -3.41,1.11 l -0.87,0.63 c -0.45,0.33 -1.09,0 -1.09,-0.55 v -7.06 z"
             id="path56" />
          <path
             class="cls-3"
             d="m 486.88,392.88 5.8,-2.52 v 7.97 c 0,0.24 -0.2,0.44 -0.44,0.44 -1.23,0 -2.42,0.39 -3.41,1.11 l -0.87,0.63 c -0.45,0.33 -1.09,0 -1.09,-0.55 v -7.06 z"
             id="path57" />
          <path
             class="cls-3"
             d="m 400.99,437.43 5.8,-2.52 v 7.97 c 0,0.24 -0.2,0.44 -0.44,0.44 -1.23,0 -2.42,0.39 -3.41,1.11 l -0.87,0.63 c -0.45,0.33 -1.09,0 -1.09,-0.55 v -7.06 z"
             id="path58" />
          <path
             class="cls-3"
             d="m 447.42,417.26 5.8,-2.52 v 7.97 c 0,0.24 -0.2,0.44 -0.44,0.44 -1.23,0 -2.42,0.39 -3.41,1.11 l -0.87,0.63 c -0.45,0.33 -1.09,0 -1.09,-0.55 v -7.06 z"
             id="path59" />
          <path
             class="cls-3"
             d="m 347.59,458.44 5.8,-2.52 v 7.97 c 0,0.24 -0.2,0.44 -0.44,0.44 -1.23,0 -2.42,0.39 -3.41,1.11 l -0.87,0.63 c -0.45,0.33 -1.09,0 -1.09,-0.55 v -7.06 z"
             id="path60" />
          <path
             class="cls-3"
             d="m 499.65,386.16 5.8,-2.52 v 7.97 c 0,0.24 -0.2,0.44 -0.44,0.44 -1.23,0 -2.42,0.39 -3.41,1.11 l -0.87,0.63 c -0.45,0.33 -1.09,0 -1.09,-0.55 v -7.06 z"
             id="path61" />
          <path
             class="cls-3"
             d="m 536.79,356.75 5.8,-2.52 v 7.97 c 0,0.24 -0.2,0.44 -0.44,0.44 -1.23,0 -2.42,0.39 -3.41,1.11 l -0.87,0.63 c -0.45,0.33 -1.09,0 -1.09,-0.55 v -7.06 z"
             id="path62" />
          <path
             class="cls-7"
             d="M 210.82,580.29 C 415.27,493.87 514.35,422.54 559.43,333.22"
             id="path63" />
          <path
             class="cls-3"
             d="m 385.91,495.61 5.24,-3.48 v 11.3 c 0,0.17 -0.14,0.3 -0.3,0.3 -1.14,0 -2.23,0.48 -3,1.33 l -0.98,1.09 c -0.34,0.37 -0.96,0.13 -0.96,-0.37 z"
             id="path64" />
          <path
             class="cls-3"
             d="m 427.85,467.77 5.24,-3.48 v 11.3 c 0,0.17 -0.14,0.3 -0.3,0.3 -1.14,0 -2.23,0.48 -3,1.33 l -0.98,1.09 c -0.34,0.37 -0.96,0.13 -0.96,-0.37 z"
             id="path65" />
          <path
             class="cls-3"
             d="m 319.86,530.41 5.24,-3.48 v 11.3 c 0,0.17 -0.14,0.3 -0.3,0.3 -1.14,0 -2.23,0.48 -3,1.33 l -0.98,1.09 c -0.34,0.37 -0.96,0.13 -0.96,-0.37 z"
             id="path66" />
          <path
             class="cls-3"
             d="m 470.83,437.61 5.24,-3.48 v 11.3 c 0,0.17 -0.14,0.3 -0.3,0.3 -1.14,0 -2.23,0.48 -3,1.33 l -0.98,1.09 c -0.34,0.37 -0.96,0.13 -0.96,-0.37 z"
             id="path67" />
          <path
             class="cls-3"
             d="m 515.92,394.69 5.24,-3.48 v 11.3 c 0,0.17 -0.14,0.3 -0.3,0.3 -1.14,0 -2.23,0.48 -3,1.33 l -0.98,1.09 c -0.34,0.37 -0.96,0.13 -0.96,-0.37 z"
             id="path68" />
          <path
             class="cls-3"
             d="m 396.39,488.65 5.24,-3.48 v 11.3 c 0,0.17 -0.14,0.3 -0.3,0.3 -1.14,0 -2.23,0.48 -3,1.33 l -0.98,1.09 c -0.34,0.37 -0.96,0.13 -0.96,-0.37 z"
             id="path69" />
          <path
             class="cls-3"
             d="m 438.33,460.81 5.24,-3.48 v 11.3 c 0,0.17 -0.14,0.3 -0.3,0.3 -1.14,0 -2.23,0.48 -3,1.33 l -0.98,1.09 c -0.34,0.37 -0.96,0.13 -0.96,-0.37 z"
             id="path70" />
          <path
             class="cls-3"
             d="m 337.68,522.29 5.24,-3.48 v 11.3 c 0,0.17 -0.14,0.3 -0.3,0.3 -1.14,0 -2.23,0.48 -3,1.33 l -0.98,1.09 c -0.34,0.37 -0.96,0.13 -0.96,-0.37 z"
             id="path71" />
          <path
             class="cls-3"
             d="m 483.41,427.17 5.24,-3.48 v 11.3 c 0,0.17 -0.14,0.3 -0.3,0.3 -1.14,0 -2.23,0.48 -3,1.33 l -0.98,1.09 c -0.34,0.37 -0.96,0.13 -0.96,-0.37 z"
             id="path72" />
          <path
             class="cls-3"
             d="m 527.45,379.61 5.24,-3.48 v 11.3 c 0,0.17 -0.14,0.3 -0.3,0.3 -1.14,0 -2.23,0.48 -3,1.33 l -0.98,1.09 c -0.34,0.37 -0.96,0.13 -0.96,-0.37 z"
             id="path73" />
          <path
             class="cls-3"
             d="m 406.88,482.85 5.24,-3.48 v 11.3 c 0,0.17 -0.14,0.3 -0.3,0.3 -1.14,0 -2.23,0.48 -3,1.33 l -0.98,1.09 c -0.34,0.37 -0.96,0.13 -0.96,-0.37 z"
             id="path74" />
          <path
             class="cls-3"
             d="m 448.82,455.01 5.24,-3.48 v 11.3 c 0,0.17 -0.14,0.3 -0.3,0.3 -1.14,0 -2.23,0.48 -3,1.33 l -0.98,1.09 c -0.34,0.37 -0.96,0.13 -0.96,-0.37 z"
             id="path75" />
          <path
             class="cls-3"
             d="m 351.31,514.17 5.24,-3.48 v 11.3 c 0,0.17 -0.14,0.3 -0.3,0.3 -1.14,0 -2.23,0.48 -3,1.33 l -0.98,1.09 c -0.34,0.37 -0.96,0.13 -0.96,-0.37 z"
             id="path76" />
          <path
             class="cls-3"
             d="m 493.9,415.57 5.24,-3.48 v 11.3 c 0,0.17 -0.14,0.3 -0.3,0.3 -1.14,0 -2.23,0.48 -3,1.33 l -0.98,1.09 c -0.34,0.37 -0.96,0.13 -0.96,-0.37 z"
             id="path77" />
          <path
             class="cls-3"
             d="m 416.31,477.05 5.24,-3.48 v 11.3 c 0,0.17 -0.14,0.3 -0.3,0.3 -1.14,0 -2.23,0.48 -3,1.33 l -0.98,1.09 c -0.34,0.37 -0.96,0.13 -0.96,-0.37 z"
             id="path78" />
          <path
             class="cls-3"
             d="m 458.25,449.21 5.24,-3.48 v 11.3 c 0,0.17 -0.14,0.3 -0.3,0.3 -1.14,0 -2.23,0.48 -3,1.33 l -0.98,1.09 c -0.34,0.37 -0.96,0.13 -0.96,-0.37 z"
             id="path79" />
          <path
             class="cls-3"
             d="m 368.09,506.05 5.24,-3.48 v 11.3 c 0,0.17 -0.14,0.3 -0.3,0.3 -1.14,0 -2.23,0.48 -3,1.33 l -0.98,1.09 c -0.34,0.37 -0.96,0.13 -0.96,-0.37 z"
             id="path80" />
          <path
             class="cls-3"
             d="m 505.43,406.29 5.24,-3.48 v 11.3 c 0,0.17 -0.14,0.3 -0.3,0.3 -1.14,0 -2.23,0.48 -3,1.33 l -0.98,1.09 c -0.34,0.37 -0.96,0.13 -0.96,-0.37 z"
             id="path81" />
          <path
             class="cls-3"
             d="m 538.98,365.69 5.24,-3.48 v 11.3 c 0,0.17 -0.14,0.3 -0.3,0.3 -1.14,0 -2.23,0.48 -3,1.33 l -0.98,1.09 c -0.34,0.37 -0.96,0.13 -0.96,-0.37 z"
             id="path82" />
          <path
             class="cls-7"
             d="M 869.12,510.3 C 696.12,450.42 612.29,400.99 574.14,339.1"
             id="path83" />
          <path
             class="cls-3"
             d="m 720.96,451.63 -4.44,-2.41 v 7.75 c 0,0.16 0.13,0.29 0.29,0.29 0.96,0 1.88,0.36 2.59,1 l 0.75,0.68 c 0.31,0.28 0.81,0.06 0.81,-0.36 v -6.94 z"
             id="path84" />
          <path
             class="cls-3"
             d="m 685.47,432.33 -4.44,-2.41 v 7.75 c 0,0.16 0.13,0.29 0.29,0.29 0.96,0 1.88,0.36 2.59,1 l 0.75,0.68 c 0.31,0.28 0.81,0.06 0.81,-0.36 v -6.94 z"
             id="path85" />
          <path
             class="cls-3"
             d="m 649.1,411.44 -4.44,-2.41 v 7.75 c 0,0.16 0.13,0.29 0.29,0.29 0.96,0 1.88,0.36 2.59,1 l 0.75,0.68 c 0.31,0.28 0.81,0.06 0.81,-0.36 v -6.94 z"
             id="path86" />
          <path
             class="cls-3"
             d="m 610.95,381.7 -4.44,-2.41 v 7.75 c 0,0.16 0.13,0.29 0.29,0.29 0.96,0 1.88,0.36 2.59,1 l 0.75,0.68 c 0.31,0.28 0.81,0.06 0.81,-0.36 v -6.94 z"
             id="path87" />
          <path
             class="cls-3"
             d="m 712.09,446.8 -4.44,-2.41 v 7.75 c 0,0.16 0.13,0.29 0.29,0.29 0.96,0 1.88,0.36 2.59,1 l 0.75,0.68 c 0.31,0.28 0.81,0.06 0.81,-0.36 v -6.94 z"
             id="path88" />
          <path
             class="cls-3"
             d="m 676.6,427.51 -4.44,-2.41 v 7.75 c 0,0.16 0.13,0.29 0.29,0.29 0.96,0 1.88,0.36 2.59,1 l 0.75,0.68 c 0.31,0.28 0.81,0.06 0.81,-0.36 v -6.94 z"
             id="path89" />
          <path
             class="cls-3"
             d="m 638.45,404.2 -4.44,-2.41 v 7.75 c 0,0.16 0.13,0.29 0.29,0.29 0.96,0 1.88,0.36 2.59,1 l 0.75,0.68 c 0.31,0.28 0.81,0.06 0.81,-0.36 v -6.94 z"
             id="path90" />
          <path
             class="cls-3"
             d="m 601.19,371.25 -4.44,-2.41 v 7.75 c 0,0.16 0.13,0.29 0.29,0.29 0.96,0 1.88,0.36 2.59,1 l 0.75,0.68 c 0.31,0.28 0.81,0.06 0.81,-0.36 v -6.94 z"
             id="path91" />
          <path
             class="cls-3"
             d="m 703.22,442.78 -4.44,-2.41 v 7.75 c 0,0.16 0.13,0.29 0.29,0.29 0.96,0 1.88,0.36 2.59,1 l 0.75,0.68 c 0.31,0.28 0.81,0.06 0.81,-0.36 v -6.94 z"
             id="path92" />
          <path
             class="cls-3"
             d="m 667.73,423.49 -4.44,-2.41 v 7.75 c 0,0.16 0.13,0.29 0.29,0.29 0.96,0 1.88,0.36 2.59,1 l 0.75,0.68 c 0.31,0.28 0.81,0.06 0.81,-0.36 v -6.94 z"
             id="path93" />
          <path
             class="cls-3"
             d="m 629.58,396.17 -4.44,-2.41 v 7.75 c 0,0.16 0.13,0.29 0.29,0.29 0.96,0 1.88,0.36 2.59,1 l 0.75,0.68 c 0.31,0.28 0.81,0.06 0.81,-0.36 v -6.94 z"
             id="path94" />
          <path
             class="cls-3"
             d="m 695.23,438.77 -4.44,-2.41 v 7.75 c 0,0.16 0.13,0.29 0.29,0.29 0.96,0 1.88,0.36 2.59,1 l 0.75,0.68 c 0.31,0.28 0.81,0.06 0.81,-0.36 v -6.94 z"
             id="path95" />
          <path
             class="cls-3"
             d="m 659.75,419.48 -4.44,-2.41 v 7.75 c 0,0.16 0.13,0.29 0.29,0.29 0.96,0 1.88,0.36 2.59,1 l 0.75,0.68 c 0.31,0.28 0.81,0.06 0.81,-0.36 v -6.94 z"
             id="path96" />
          <path
             class="cls-3"
             d="m 619.82,389.74 -4.44,-2.41 v 7.75 c 0,0.16 0.13,0.29 0.29,0.29 0.96,0 1.88,0.36 2.59,1 l 0.75,0.68 c 0.31,0.28 0.81,0.06 0.81,-0.36 v -6.94 z"
             id="path97" />
          <path
             class="cls-3"
             d="m 591.43,361.6 -4.44,-2.41 v 7.75 c 0,0.16 0.13,0.29 0.29,0.29 0.96,0 1.88,0.36 2.59,1 l 0.75,0.68 c 0.31,0.28 0.81,0.06 0.81,-0.36 v -6.94 z"
             id="path98" />
          <path
             class="cls-7"
             d="M 796.84,547.8 C 666.23,474.8 602.94,414.54 574.13,339.1"
             id="path99" />
          <path
             class="cls-3"
             d="m 684.99,476.27 -3.35,-2.94 v 9.63 c 0,0.09 0.07,0.17 0.17,0.17 0.73,0 1.42,0.36 1.83,0.97 l 0.71,1.05 c 0.19,0.28 0.63,0.15 0.63,-0.2 v -8.68 z"
             id="path100" />
          <path
             class="cls-3"
             d="m 658.19,452.76 -3.35,-2.94 v 9.63 c 0,0.09 0.07,0.17 0.17,0.17 0.73,0 1.42,0.36 1.83,0.97 l 0.71,1.05 c 0.19,0.28 0.63,0.15 0.63,-0.2 v -8.68 z"
             id="path101" />
          <path
             class="cls-3"
             d="m 630.73,427.28 -3.35,-2.94 v 9.63 c 0,0.09 0.07,0.17 0.17,0.17 0.73,0 1.42,0.36 1.83,0.97 l 0.71,1.05 c 0.19,0.28 0.63,0.15 0.63,-0.2 v -8.68 z"
             id="path102" />
          <path
             class="cls-3"
             d="m 601.93,391.03 -3.35,-2.94 v 9.63 c 0,0.09 0.07,0.17 0.17,0.17 0.73,0 1.42,0.36 1.83,0.97 l 0.71,1.05 c 0.19,0.28 0.63,0.14 0.63,-0.2 v -8.68 z"
             id="path103" />
          <path
             class="cls-3"
             d="m 678.29,470.4 -3.35,-2.94 v 9.63 c 0,0.09 0.07,0.17 0.17,0.17 0.73,0 1.42,0.36 1.83,0.97 l 0.71,1.05 c 0.19,0.28 0.63,0.14 0.63,-0.2 v -8.68 z"
             id="path104" />
          <path
             class="cls-3"
             d="m 651.5,446.88 -3.35,-2.94 v 9.63 c 0,0.09 0.07,0.17 0.17,0.17 0.73,0 1.42,0.36 1.83,0.97 l 0.71,1.05 c 0.19,0.28 0.63,0.14 0.63,-0.2 v -8.68 z"
             id="path105" />
          <path
             class="cls-3"
             d="m 715.8,498.81 -3.35,-2.94 v 9.63 c 0,0.09 0.07,0.17 0.17,0.17 0.73,0 1.42,0.36 1.83,0.97 l 0.71,1.05 c 0.19,0.28 0.63,0.15 0.63,-0.2 v -8.68 z"
             id="path106" />
          <path
             class="cls-3"
             d="m 622.69,418.47 -3.35,-2.94 v 9.63 c 0,0.09 0.07,0.17 0.17,0.17 0.73,0 1.42,0.36 1.83,0.97 l 0.71,1.05 c 0.19,0.28 0.63,0.15 0.63,-0.2 v -8.68 z"
             id="path107" />
          <path
             class="cls-3"
             d="m 594.56,378.29 -3.35,-2.94 v 9.63 c 0,0.09 0.07,0.17 0.17,0.17 0.73,0 1.42,0.36 1.83,0.97 l 0.71,1.05 c 0.19,0.28 0.63,0.14 0.63,-0.2 v -8.68 z"
             id="path108" />
          <path
             class="cls-3"
             d="m 671.59,465.5 -3.35,-2.94 v 9.63 c 0,0.09 0.07,0.17 0.17,0.17 0.73,0 1.42,0.36 1.83,0.97 l 0.71,1.05 c 0.19,0.28 0.63,0.14 0.63,-0.2 v -8.68 z"
             id="path109" />
          <path
             class="cls-3"
             d="m 644.8,441.98 -3.35,-2.94 v 9.63 c 0,0.09 0.07,0.17 0.17,0.17 0.73,0 1.42,0.36 1.83,0.97 l 0.71,1.05 c 0.19,0.28 0.63,0.14 0.63,-0.2 v -8.68 z"
             id="path110" />
          <path
             class="cls-3"
             d="m 707.09,491.95 -3.35,-2.94 v 9.63 c 0,0.09 0.07,0.17 0.17,0.17 0.73,0 1.42,0.36 1.83,0.97 l 0.71,1.05 c 0.19,0.28 0.63,0.15 0.63,-0.2 v -8.68 z"
             id="path111" />
          <path
             class="cls-3"
             d="m 616,408.67 -3.35,-2.94 v 9.63 c 0,0.09 0.07,0.17 0.17,0.17 0.73,0 1.42,0.36 1.83,0.97 l 0.71,1.05 c 0.19,0.28 0.63,0.14 0.63,-0.2 v -8.68 z"
             id="path112" />
          <path
             class="cls-3"
             d="m 665.56,460.6 -3.35,-2.94 v 9.63 c 0,0.09 0.07,0.17 0.17,0.17 0.73,0 1.42,0.36 1.83,0.97 l 0.71,1.05 c 0.19,0.28 0.63,0.14 0.63,-0.2 v -8.68 z"
             id="path113" />
          <path
             class="cls-3"
             d="m 638.77,437.08 -3.35,-2.94 v 9.63 c 0,0.09 0.07,0.17 0.17,0.17 0.73,0 1.42,0.36 1.83,0.97 l 0.71,1.05 c 0.19,0.28 0.63,0.15 0.63,-0.2 v -8.68 z"
             id="path114" />
          <path
             class="cls-3"
             d="m 696.37,485.09 -3.35,-2.94 v 9.63 c 0,0.09 0.07,0.17 0.17,0.17 0.73,0 1.42,0.36 1.83,0.97 l 0.71,1.05 c 0.19,0.28 0.63,0.15 0.63,-0.2 v -8.68 z"
             id="path115" />
          <path
             class="cls-3"
             d="m 608.63,400.83 -3.35,-2.94 v 9.63 c 0,0.09 0.07,0.17 0.17,0.17 0.73,0 1.42,0.36 1.83,0.97 l 0.71,1.05 c 0.19,0.28 0.63,0.14 0.63,-0.2 v -8.68 z"
             id="path116" />
          <path
             class="cls-3"
             d="m 587.2,366.53 -3.35,-2.94 v 9.63 c 0,0.09 0.07,0.17 0.17,0.17 0.73,0 1.42,0.36 1.83,0.97 l 0.71,1.05 c 0.19,0.28 0.63,0.14 0.63,-0.2 v -8.68 z"
             id="path117" />
          <path
             class="cls-3"
             d="m 561.53,458.44 36.14,-1.68 2.52,8.4 -2.52,1.68 -1.52,-0.21 c -0.98,-0.14 -1.97,-0.03 -2.9,0.3 l -0.27,0.1 c -1.18,0.42 -2.47,0.42 -3.64,-0.02 l -1.15,-0.43 c -0.97,-0.36 -2.05,-0.2 -2.87,0.41 l -0.29,0.22 c -0.74,0.55 -1.73,0.64 -2.56,0.23 -0.73,-0.37 -1.6,-0.34 -2.31,0.06 l -0.7,0.4 c -0.71,0.41 -1.54,0.58 -2.36,0.5 l -1.33,-0.13 c -1.1,-0.11 -2.22,0 -3.27,0.34 l -0.54,0.17 c -1.23,0.39 -2.54,0.43 -3.79,0.11 -1.97,-0.5 -4.06,-0.11 -5.72,1.08 l -0.91,0.65 v -12.19 z"
             id="path118" />
          <path
             class="cls-1"
             d="m 531.27,450.98 30.25,-0.11 v 7.09 l -30.25,-0.37 v -6.62 z"
             id="path119" />
          <path
             class="cls-1"
             d="m 561.53,450.97 36.14,-0.94 v 6.3 l -36.14,1.68 z"
             id="path120" />
          <path
             class="cls-8"
             d="m 432.62,508.7 c 2.62,56.2 65.03,45.12 86.35,26.66 40.22,53.33 90.54,22.22 108.21,0 50.82,38.97 73.23,-4.62 63.94,-29.23"
             id="path121" />
          <path
             class="cls-10"
             d="m 545.68,484.7 -0.25,-2.82 c -0.08,-0.94 0.62,-1.73 1.49,-2.1 1.25,-0.53 1.45,-1.33 1.34,-1.82 -0.02,-0.08 -0.04,-0.16 -0.07,-0.25 -0.37,-1.43 -1.47,-1.36 -2.43,-0.92 -0.63,0.29 -0.71,1.1 -0.28,1.64 v 0"
             id="path122" />
          <path
             class="cls-10"
             d="m 538.82,474.12 c 2.35,-1.88 4.51,-0.4 5.29,0.58"
             id="path123" />
          <path
             class="cls-10"
             d="m 538.49,477.05 c 1.89,-0.97 3.75,-1.66 5.42,-0.59"
             id="path124" />
          <path
             class="cls-10"
             d="m 549.47,474.69 c 2.35,-1.88 4.51,-0.4 5.29,0.58"
             id="path125" />
          <path
             class="cls-10"
             d="m 549.27,476.46 c 1.89,-0.97 4.54,-0.68 5.32,0.3"
             id="path126" />
          <circle
             class="cls-3"
             cx="541.16998"
             cy="477.06"
             r="0.88999999"
             id="circle126" />
          <circle
             class="cls-3"
             cx="551.95001"
             cy="476.45999"
             r="0.88999999"
             id="circle127" />
          <path
             class="cls-10"
             d="m 581.27,484.56 -0.44,-2.8 c -0.15,-0.94 0.49,-1.77 1.34,-2.2 1.21,-0.61 1.35,-1.42 1.21,-1.91 -0.02,-0.08 -0.06,-0.16 -0.08,-0.24 -0.47,-1.4 -1.57,-1.25 -2.49,-0.75 -0.61,0.33 -0.63,1.14 -0.16,1.65 v 0"
             id="path127" />
          <path
             class="cls-10"
             d="m 573.68,474.5 c 2.21,-2.04 4.47,-0.71 5.32,0.21"
             id="path128" />
          <path
             class="cls-10"
             d="m 573.57,477.44 c 1.82,-1.1 3.63,-1.92 5.37,-0.96"
             id="path129" />
          <path
             class="cls-10"
             d="m 584.34,474.32 c 2.21,-2.04 4.47,-0.71 5.32,0.21"
             id="path130" />
          <path
             class="cls-10"
             d="m 584.27,476.1 c 1.82,-1.1 4.48,-1 5.33,-0.08"
             id="path131" />
          <circle
             class="cls-3"
             cx="576.23999"
             cy="477.26001"
             r="0.88999999"
             id="circle131" />
          <circle
             class="cls-3"
             cx="586.94"
             cy="475.91"
             r="0.88999999"
             id="circle132" />
          <rect
             class="cls-3"
             x="385.88"
             y="619.79999"
             width="352.14999"
             height="78.010002"
             id="rect132" />
        </g>
      </g>
    </g>
  </g>
</svg>
